<?xml version="1.0" encoding="utf-8"?>
<!-- Generator: Adobe Illustrator 22.0.1, SVG Export Plug-In . SVG Version: 6.00 Build 0)  -->
<svg version="1.1" id="Lag_2" xmlns="http://www.w3.org/2000/svg" xmlns:xlink="http://www.w3.org/1999/xlink" x="0px" y="0px"
	 viewBox="0 0 715.4 212.6" style="enable-background:new 0 0 715.4 212.6;" xml:space="preserve">
<style type="text/css">
	.st0{fill:#C4172F;}
	.st1{fill:#3FA43C;}
	.st2{fill:#686867;}
</style>
<path class="st0" d="M86,65.2c0,9.2-7.5,16.7-16.7,16.7s-16.7-7.5-16.7-16.7s7.5-16.7,16.7-16.7S86,56,86,65.2z"/>
<path class="st1" d="M68.9,106.4c-1.2,0.1-2.4,0.2-3.6,0.2c-23.1,0-41.8-18.7-41.8-41.8S42.1,23,65.2,23c1.2,0,2.4,0.1,3.6,0.2V2.7
	c-1.4-0.1-2.7-0.1-4.1-0.1c-34.5,0-62.4,28-62.4,62.5s28,62.4,62.4,62.4c1.4,0,2.7-0.1,4.1-0.1V106.4z"/>
<g>
	<g>
		<path class="st2" d="M206.8,51.3c-0.9-1.1-2-1.9-3.3-2.5c-1.2-0.6-2.5-0.9-3.9-0.9s-2.6,0.4-3.8,1.3c-1.1,0.9-1.7,2.3-1.7,4.3
			c0,1.7,0.6,3,1.7,4s2.8,2,5,3.1c1.2,0.6,2.6,1.4,3.9,2.2c1.4,0.9,2.6,1.9,3.8,3.1c1.1,1.2,2.1,2.7,2.8,4.5
			c0.8,1.7,1.1,3.8,1.1,6.2c0,2.9-0.5,5.5-1.4,7.8c-0.9,2.2-2.2,4.1-3.8,5.6c-1.6,1.5-3.4,2.6-5.5,3.3c-2.1,0.7-4.2,1.1-6.4,1.1
			c-3.3,0-6.3-0.6-9-1.9c-2.7-1.2-4.9-2.7-6.5-4.3l6.3-9.3c1.2,1.2,2.6,2.2,4.1,3c1.6,0.7,3.1,1.1,4.7,1.1c1.5,0,2.8-0.5,3.8-1.5
			s1.5-2.3,1.5-4.1c0-1.8-0.6-3.2-1.9-4.3c-1.2-1.1-3-2.2-5.4-3.4c-1.5-0.7-2.9-1.5-4.2-2.4s-2.5-1.9-3.5-3.2
			c-1-1.2-1.8-2.7-2.4-4.3c-0.6-1.6-0.9-3.6-0.9-5.9c0-3,0.5-5.7,1.5-7.9s2.3-4,3.9-5.4c1.6-1.4,3.4-2.4,5.4-3.1c2-0.7,4-1,6-1
			c3,0,5.7,0.5,8.1,1.5s4.4,2.3,6,4L206.8,51.3z"/>
		<path class="st2" d="M262.6,55.4c0,3-0.5,5.7-1.4,7.9c-0.9,2.2-2.2,4-3.7,5.5c-1.5,1.4-3.3,2.5-5.3,3.2s-3.9,1-6,1h-5.3v20h-12.2
			V38.1h17c2,0,3.9,0.3,5.9,0.9c2,0.6,3.8,1.5,5.4,2.8s2.9,3.1,3.9,5.3C262.1,49.4,262.6,52.1,262.6,55.4z M251,55.6
			c0-2.5-0.6-4.3-1.8-5.3c-1.2-1.1-2.6-1.6-4.3-1.6h-4V63h3.9c1.7,0,3.1-0.6,4.3-1.9C250.4,59.8,251,58,251,55.6z"/>
		<path class="st2" d="M297.8,93l-2.3-10h-12.3L281,93h-12.4l13.3-54.8h15.6L310.7,93H297.8z M289.6,50.1h-0.3l-4.6,23.3h9.4
			L289.6,50.1z"/>
		<path class="st2" d="M347.2,93L340,71.2h-3.6V93h-11.9V38.2h17.4c5.3,0,9.4,1.4,12.4,4.1c2.9,2.8,4.4,6.9,4.4,12.3
			c0,2-0.2,3.8-0.7,5.4c-0.5,1.6-1.1,3-1.8,4.1c-0.7,1.1-1.6,2.1-2.5,2.8s-1.8,1.2-2.7,1.5l9.3,24.5h-13V93z M346.5,55.4
			c0-1.4-0.2-2.5-0.6-3.4s-0.9-1.6-1.5-2.1s-1.3-0.9-2.1-1c-0.8-0.2-1.5-0.3-2.2-0.3h-3.9v13.9h3.6c1.8,0,3.3-0.6,4.6-1.7
			C345.9,59.6,346.5,57.9,346.5,55.4z"/>
		<path class="st2" d="M375.1,93V38.2h26.5v10.9H387v10.8h13.5v10.2H387v11.8h15.6V93H375.1z"/>
		<path class="st2" d="M443.1,93l-11.7-25.5h-0.2V93h-12.5V38.2h12.5V61h0.2l11.3-22.8h13.9l-14.1,25.1L457.4,93H443.1z"/>
		<path class="st2" d="M495.9,93l-2.2-10h-12.3l-2.2,10h-12.4L480,38.2h15.6L508.8,93H495.9z M487.6,50.1h-0.3l-4.6,23.3h9.4
			L487.6,50.1z"/>
		<path class="st2" d="M545.3,51.3c-0.9-1.1-2-1.9-3.2-2.5s-2.5-0.9-3.9-0.9s-2.6,0.4-3.8,1.3c-1.1,0.9-1.7,2.3-1.7,4.3
			c0,1.7,0.6,3,1.7,4c1.1,1,2.8,2,5,3.1c1.2,0.6,2.6,1.4,3.9,2.2c1.4,0.9,2.6,1.9,3.8,3.1c1.1,1.2,2.1,2.7,2.8,4.5
			c0.8,1.7,1.1,3.8,1.1,6.2c0,2.9-0.5,5.5-1.4,7.8c-0.9,2.2-2.2,4.1-3.8,5.6s-3.4,2.6-5.5,3.3c-2.1,0.7-4.2,1.1-6.4,1.1
			c-3.3,0-6.3-0.6-9-1.9c-2.7-1.2-4.9-2.7-6.5-4.3l6.3-9.3c1.2,1.2,2.6,2.2,4.1,3c1.5,0.7,3.1,1.1,4.7,1.1c1.5,0,2.8-0.5,3.8-1.5
			s1.5-2.3,1.5-4.1c0-1.8-0.6-3.2-1.9-4.3c-1.2-1.1-3-2.2-5.4-3.4c-1.5-0.7-2.9-1.5-4.2-2.4s-2.5-1.9-3.5-3.2
			c-1-1.2-1.8-2.7-2.4-4.3c-0.6-1.6-0.8-3.6-0.8-5.9c0-3,0.5-5.7,1.5-7.9s2.3-4,4-5.4c1.6-1.4,3.4-2.4,5.4-3.1c2-0.7,4-1,6-1
			c3,0,5.7,0.5,8,1.5c2.4,1,4.4,2.3,6,4L545.3,51.3z"/>
		<path class="st2" d="M588.7,51.3c-0.9-1.1-2-1.9-3.2-2.5s-2.5-0.9-3.9-0.9s-2.6,0.4-3.8,1.3c-1.1,0.9-1.7,2.3-1.7,4.3
			c0,1.7,0.6,3,1.7,4c1.1,1,2.8,2,5,3.1c1.2,0.6,2.6,1.4,3.9,2.2c1.4,0.9,2.6,1.9,3.8,3.1c1.1,1.2,2.1,2.7,2.8,4.5
			c0.8,1.7,1.1,3.8,1.1,6.2c0,2.9-0.5,5.5-1.4,7.8c-0.9,2.2-2.2,4.1-3.8,5.6s-3.4,2.6-5.5,3.3c-2.1,0.7-4.2,1.1-6.4,1.1
			c-3.3,0-6.3-0.6-9-1.9c-2.7-1.2-4.9-2.7-6.5-4.3l6.3-9.3c1.2,1.2,2.6,2.2,4.1,3c1.6,0.7,3.1,1.1,4.7,1.1c1.5,0,2.8-0.5,3.8-1.5
			s1.5-2.3,1.5-4.1c0-1.8-0.6-3.2-1.9-4.3c-1.2-1.1-3-2.2-5.4-3.4c-1.5-0.7-2.9-1.5-4.2-2.4s-2.5-1.9-3.5-3.2
			c-1-1.2-1.8-2.7-2.4-4.3c-0.6-1.6-0.8-3.6-0.8-5.9c0-3,0.5-5.7,1.5-7.9s2.3-4,3.9-5.4c1.6-1.4,3.4-2.4,5.4-3.1c2-0.7,4-1,6-1
			c3,0,5.7,0.5,8,1.5c2.4,1,4.4,2.3,6,4L588.7,51.3z"/>
		<path class="st2" d="M609.5,93V38.2h26.4v10.9h-14.6v10.8h13.5v10.2h-13.5v11.8h15.6V93H609.5z"/>
		<path class="st2" d="M676.7,93L664,59.6h-0.2L664,93H653V38.2h13.6L679.1,72h0.2l-0.2-33.8h10.7V93H676.7z"/>
	</g>
</g>
<path class="st2" d="M190.6,131.9c-0.9-1.1-2-1.9-3.2-2.5s-2.5-0.9-3.9-0.9s-2.6,0.4-3.7,1.3c-1.1,0.9-1.7,2.3-1.7,4.3
	c0,1.7,0.6,3,1.7,4c1.1,1,2.8,2,5,3.1c1.2,0.6,2.6,1.4,3.9,2.2c1.4,0.8,2.6,1.9,3.8,3.1c1.1,1.2,2.1,2.7,2.8,4.4
	c0.8,1.7,1.1,3.8,1.1,6.2c0,2.9-0.5,5.5-1.4,7.8c-0.9,2.2-2.2,4.1-3.8,5.6c-1.6,1.5-3.4,2.6-5.5,3.3c-2.1,0.7-4.2,1.1-6.4,1.1
	c-3.3,0-6.3-0.6-9-1.9c-2.7-1.2-4.9-2.7-6.5-4.3l6.3-9.3c1.2,1.2,2.6,2.2,4.1,3s3.1,1.1,4.7,1.1c1.5,0,2.8-0.5,3.8-1.5
	s1.5-2.3,1.5-4.1c0-1.8-0.6-3.2-1.9-4.3c-1.2-1.1-3-2.2-5.4-3.4c-1.5-0.7-2.9-1.5-4.2-2.4s-2.5-1.9-3.5-3.2c-1-1.2-1.8-2.7-2.4-4.3
	c-0.6-1.6-0.9-3.6-0.9-5.9c0-3,0.5-5.7,1.5-7.8c1-2.2,2.3-4,3.9-5.4c1.6-1.4,3.4-2.4,5.4-3.1s4-1,6-1c3,0,5.7,0.5,8,1.5
	c2.4,1,4.3,2.3,5.9,4L190.6,131.9z"/>
<path class="st2" d="M232.4,169.9c-2.6,3.3-6.6,4.9-12,4.9c-3.8,0-7.1-1.1-9.7-3.2c-2.7-2.2-4.4-5-5.3-8.6l10-4.5
	c0.3,1.2,0.8,2.3,1.5,3.2c0.7,0.9,1.6,1.4,2.8,1.4c1.7,0,2.8-0.7,3.4-2.1c0.5-1.4,0.8-3.3,0.8-5.8v-36.3h12.3v37.5
	C236.1,162.1,234.9,166.6,232.4,169.9z"/>
<path class="st2" d="M273.1,173.6v-10.1h-11l-3.3,10.1h-12.7l19-54.7h33.7v10.9h-14.3v10.7h13v10.2h-13v11.7h15.1v11.1L273.1,173.6
	L273.1,173.6z M273.1,129.5h-0.4l-7.8,24.3h8.2L273.1,129.5L273.1,129.5z"/>
<path class="st2" d="M316.8,173.6v-54.7h12.5v43.3h14.6v11.4L316.8,173.6L316.8,173.6z"/>
<path class="st2" d="M358.2,173.6v-54.7h12.5v43.3h14.6v11.4L358.2,173.6L358.2,173.6z"/>
<path class="st2" d="M426.4,173.6l-2.2-10h-12.3l-2.2,10h-12.4l13.3-54.7H426l13.2,54.7H426.4z M418.2,130.8h-0.4l-4.6,23.2h9.3
	L418.2,130.8z"/>
<path class="st2" d="M475.4,173.6l-12.7-33.3h-0.2l0.3,33.3h-11v-54.7h13.6l12.6,33.8h0.2l-0.2-33.8h10.7v54.7H475.4z"/>
<path class="st2" d="M543.1,146.4c0,4.1-0.4,7.8-1.4,11.2c-0.9,3.4-2.3,6.2-4.1,8.6c-1.9,2.4-4.2,4.2-7.1,5.5
	c-2.9,1.3-6.2,1.9-10.2,1.9h-15.4v-54.7h15.4c3.9,0,7.3,0.6,10.2,1.9s5.2,3.1,7.1,5.5c1.8,2.4,3.2,5.3,4.1,8.7
	C542.7,138.4,543.1,142.2,543.1,146.4z M530.7,146.4c0-5.5-0.9-9.7-2.8-12.5c-1.9-2.8-4.3-4.2-7.3-4.2h-3v33.1h3
	c3,0,5.4-1.4,7.3-4.2C529.7,155.7,530.7,151.7,530.7,146.4z"/>
<path class="st2" d="M604,130v11.2H617v10.6H604v21.8h-12.6v-54.7h26.8V130H604z"/>
<path class="st2" d="M653.4,153.9v19.7h-12.2v-19.7l-13.9-35h13.4l6.6,22.6h0.2l6.7-22.6h13.2L653.4,153.9z"/>
<path class="st2" d="M698.2,173.6l-12.7-33.3h-0.2l0.3,33.3h-11.1v-54.7h13.7l12.7,33.8h0.2l-0.2-33.8h10.7v54.7H698.2z"/>
<rect x="557" y="142.2" class="st2" width="19.3" height="8.4"/>
<path class="st1" d="M139.8,158.4c0,28.8-23.3,52.1-52.1,52.1V106.3C116.5,106.3,139.8,129.7,139.8,158.4z"/>
</svg>
